<svg width="63" height="50" viewBox="0 0 63 50" fill="none" xmlns="http://www.w3.org/2000/svg">
<path d="M60.437 0C54.8082 0.48574 49.2165 1.33418 43.697 2.54001C43.4086 2.60462 43.1362 2.7264 42.8957 2.89816C42.6552 3.06993 42.4516 3.28819 42.297 3.54001C42.0486 3.63856 41.8079 3.75556 41.577 3.89001C41.2134 4.11167 40.93 4.44362 40.7681 4.83752C40.6062 5.23143 40.5743 5.66672 40.677 6.08002C40.8427 6.63854 41.174 7.13365 41.627 7.5C41.7006 7.69859 41.8052 7.88425 41.937 8.05002C42.817 9.13002 43.707 10.19 44.627 11.23C37.427 17.4 30.277 23.61 22.877 29.53C15.477 35.45 7.44698 41.2 0.336984 47.66C-0.593016 48.51 0.586987 49.9 1.63699 49.34C18.307 40.52 33.887 27.34 47.987 14.87C49.657 16.59 51.357 18.27 53.127 19.87C53.4677 20.1939 53.8855 20.4254 54.3408 20.5426C54.796 20.6597 55.2737 20.6587 55.7284 20.5395C56.1832 20.4203 56.5999 20.1869 56.9392 19.8615C57.2784 19.5361 57.529 19.1294 57.667 18.68C59.497 13.55 61.207 8.40001 62.897 3.23001C62.9997 2.85128 63.014 2.454 62.9387 2.06888C62.8634 1.68375 62.7006 1.32106 62.4628 1.00888C62.2251 0.696697 61.9187 0.443367 61.5674 0.268433C61.2162 0.0934985 60.8294 0.00164982 60.437 0Z" fill="#0070AF"/>
</svg>
