<svg width="55" height="57" viewBox="0 0 55 57" fill="none" xmlns="http://www.w3.org/2000/svg">
<path d="M52.3266 52.3765C46.7966 53.2165 41.5566 55.1365 36.0966 56.1565C35.7196 56.2384 35.3265 56.1991 34.9732 56.0443C34.62 55.8894 34.3246 55.6269 34.1295 55.2942C33.9343 54.9616 33.8492 54.5757 33.8864 54.1918C33.9236 53.8079 34.0811 53.4455 34.3365 53.1565C35.5924 51.9397 37.0008 50.8909 38.5266 50.0365C18.9165 41.6765 2.06656 22.2865 0.00656089 1.0365C-0.123439 -0.303505 1.71656 -0.283512 2.14656 0.746487C10.2666 20.2265 22.8666 35.1265 42.0066 43.2565C41.2077 41.6683 40.6034 39.9895 40.2066 38.2565C39.2766 34.1165 45.6566 32.3465 46.5766 36.5065C47.372 40.5346 49.7214 44.0875 53.1166 46.3965C55.1866 47.7665 55.3666 51.9065 52.3266 52.3765Z" fill="#0070AF"/>
</svg>
