<svg width="34" height="60" viewBox="0 0 34 60" fill="none" xmlns="http://www.w3.org/2000/svg">
<path d="M17.4694 58.8125C13.2939 58.8874 9.1203 58.9502 4.94873 59.0009C4.28368 59.0215 3.62258 58.8914 3.01498 58.6202C2.40738 58.349 1.86903 57.9438 1.44028 57.435C1.01153 56.9262 0.703484 56.327 0.539239 55.6822C0.374994 55.0374 0.358809 54.3638 0.491888 53.7119C1.83833 48.217 2.74665 42.6239 3.20831 36.9852C3.62277 32.3288 10.8763 33.3418 11.0894 37.6557C11.1062 40.8547 10.9077 44.0512 10.4955 47.2236C24.0025 36.3427 29.8865 19.8553 29.8078 2.2549C29.7919 0.929322 31.8682 0.411603 32.2058 1.82695C36.3478 19.4911 28.1669 38.172 14.8291 50.011L17.0689 49.9347C22.8013 49.7545 23.1693 58.6942 17.4694 58.8125Z" fill="#0070AF"/>
</svg>
