<svg width="32" height="71" viewBox="0 0 32 71" fill="none" xmlns="http://www.w3.org/2000/svg">
<path d="M27.2809 70.2838C21.9617 68.554 16.4172 67.9195 11.0798 66.3819C10.7062 66.2861 10.3724 66.0746 10.1262 65.7778C9.87989 65.4809 9.7337 65.1138 9.7085 64.7289C9.68329 64.3441 9.78034 63.961 9.98579 63.6346C10.1912 63.3082 10.4946 63.055 10.8525 62.9112C12.5208 62.387 14.25 62.0815 15.9968 62.0022C2.22043 45.7341 -4.14153 20.8459 3.54939 0.929706C4.03429 -0.326232 5.66982 0.516999 5.5921 1.63044C4.11127 22.683 8.68886 41.6519 22.1484 57.5036C22.1468 55.7258 22.3597 53.9543 22.7825 52.2274C23.8083 48.1102 30.3044 49.3901 29.2606 53.5207C28.1647 57.4777 28.6708 61.707 30.6694 65.2936C31.905 67.4465 30.2088 71.2274 27.2809 70.2838Z" fill="#0070AF"/>
</svg>
