<svg width="58" height="36" viewBox="0 0 58 36" fill="none" xmlns="http://www.w3.org/2000/svg">
<path d="M57.4585 18.9829C57.3438 23.1576 57.217 27.3297 57.0782 31.4992C57.0686 32.1645 56.9086 32.819 56.6101 33.4137C56.3116 34.0084 55.8824 34.5278 55.3547 34.933C54.8269 35.3382 54.2143 35.6187 53.5627 35.7535C52.9112 35.8883 52.2375 35.8739 51.5923 35.7113C46.1642 34.1168 40.6181 32.9554 35.0062 32.2382C30.3734 31.6128 31.7148 24.4127 36.0339 24.3957C39.2303 24.5242 42.4146 24.8676 45.5649 25.4234C35.3086 11.4363 19.1053 4.80973 1.51947 4.08927C0.194542 4.04491 -0.22837 1.94727 1.20084 1.6743C19.0349 -1.66141 37.325 7.35926 48.5462 21.2209L48.5717 18.9799C48.652 13.2452 57.5992 13.2835 57.4585 18.9829Z" fill="#0070AF"/>
</svg>
