<svg width="32" height="71" viewBox="0 0 32 71" fill="none" xmlns="http://www.w3.org/2000/svg">
<path d="M27.2809 70.0113C21.9617 68.2815 16.4172 67.647 11.0798 66.1095C10.7062 66.0136 10.3724 65.8022 10.1262 65.5053C9.87989 65.2085 9.7337 64.8414 9.7085 64.4565C9.68329 64.0716 9.78034 63.6886 9.98579 63.3621C10.1912 63.0357 10.4946 62.7825 10.8525 62.6387C12.5208 62.1146 14.25 61.809 15.9968 61.7298C2.22043 45.4616 -4.14153 20.5735 3.54939 0.657245C4.03429 -0.598693 5.66982 0.244538 5.5921 1.35798C4.11127 22.4106 8.68886 41.3794 22.1484 57.2311C22.1468 55.4533 22.3597 53.6818 22.7825 51.955C23.8083 47.8377 30.3044 49.1176 29.2606 53.2483C28.1647 57.2052 28.6708 61.4345 30.6694 65.0211C31.905 67.1741 30.2088 70.9549 27.2809 70.0113Z" fill="#0070AF"/>
</svg>
