<svg width="48" height="36" viewBox="0 0 48 36" fill="none" xmlns="http://www.w3.org/2000/svg">
<path d="M0 30V6C0 4.4087 0.632141 2.88258 1.75736 1.75736C2.88258 0.632141 4.4087 0 6 0H42C43.5913 0 45.1174 0.632141 46.2426 1.75736C47.3679 2.88258 48 4.4087 48 6V30C48 31.5913 47.3679 33.1174 46.2426 34.2426C45.1174 35.3679 43.5913 36 42 36H6C4.4087 36 2.88258 35.3679 1.75736 34.2426C0.632141 33.1174 0 31.5913 0 30ZM20.37 9.279C20.1457 9.11931 19.8818 9.02443 19.6072 9.00476C19.3325 8.98509 19.0578 9.04138 18.813 9.16748C18.5683 9.29358 18.3629 9.48461 18.2195 9.71965C18.0761 9.95469 18.0002 10.2247 18 10.5V25.5C18.0002 25.7753 18.0761 26.0453 18.2195 26.2803C18.3629 26.5154 18.5683 26.7064 18.813 26.8325C19.0578 26.9586 19.3325 27.0149 19.6072 26.9952C19.8818 26.9756 20.1457 26.8807 20.37 26.721L30.87 19.221C31.0644 19.0822 31.2229 18.8991 31.3323 18.6867C31.4417 18.4743 31.4987 18.2389 31.4987 18C31.4987 17.7611 31.4417 17.5257 31.3323 17.3133C31.2229 17.1009 31.0644 16.9178 30.87 16.779L20.37 9.279Z" fill="#0070AF"/>
</svg>
