<svg width="30" height="30" viewBox="0 0 30 30" fill="none" xmlns="http://www.w3.org/2000/svg">
<path d="M25.6066 4.3934C28.4196 7.20644 30 11.0218 30 15C30 18.9782 28.4196 22.7936 25.6066 25.6066C22.7936 28.4196 18.9782 30 15 30C11.0218 30 7.20644 28.4196 4.3934 25.6066C1.58035 22.7936 0 18.9782 0 15C0 11.0218 1.58035 7.20644 4.3934 4.3934C7.20644 1.58035 11.0218 0 15 0C18.9782 0 22.7936 1.58035 25.6066 4.3934ZM11.0225 9.6967C10.8467 9.52088 10.6083 9.42211 10.3596 9.42211C10.111 9.42211 9.87251 9.52088 9.6967 9.6967C9.52088 9.87251 9.42211 10.111 9.42211 10.3596C9.42211 10.6083 9.52088 10.8467 9.6967 11.0225L13.6742 15L9.6967 18.9775C9.52088 19.1533 9.42211 19.3917 9.42211 19.6404C9.42211 19.889 9.52088 20.1275 9.6967 20.3033C9.87251 20.4791 10.111 20.5779 10.3596 20.5779C10.6083 20.5779 10.8467 20.4791 11.0225 20.3033L15 16.3258L18.9775 20.3033C19.1533 20.4791 19.3917 20.5779 19.6404 20.5779C19.889 20.5779 20.1275 20.4791 20.3033 20.3033C20.4791 20.1275 20.5779 19.889 20.5779 19.6404C20.5779 19.3917 20.4791 19.1533 20.3033 18.9775L16.3258 15L20.3033 11.0225C20.4791 10.8467 20.5779 10.6083 20.5779 10.3596C20.5779 10.111 20.4791 9.87251 20.3033 9.6967C20.1275 9.52088 19.889 9.42211 19.6404 9.42211C19.3917 9.42211 19.1533 9.52088 18.9775 9.6967L15 13.6742L11.0225 9.6967Z" fill="#0070AF"/>
</svg>
